<svg xmlns="http://www.w3.org/2000/svg" width="256" height="256" viewBox="0 0 256 256">
  <rect width="256" height="256" rx="48" fill="#da3b01"/>
  <g transform="translate(61.2,53) scale(0.965)">
    <path fill="#ffffff" fill-opacity="1"
      transform="matrix(.26458 0 0 .26458 -195.29 -186.75)"
      d="M974.1 715.04 759.403 839.665a37.14 37.14 119.933 0 0-18.493 32.116v162.46a52.14 52.14 60.1 0 0 25.91 45.058l214.668 124.94a36.78 36.78 179.973 0 0 37.038-.018l154.214-89.952a21.88 21.88 124.707 0 0 12.41-17.92V914.786a37.17 37.17 60.064 0 0-18.513-32.15l-148.111-85.951a36.89 36.89 0 0 0-37.028 0l-155.538 90.26A22.26 22.26 119.936 0 0 814.87 906.2v93.96a37.3 37.3 60.121 0 0 18.514 32.224l155.503 90.66a22.06 22.06 179.975 0 0 22.242-.01l88.99-51.986a22.34 22.34 119.854 0 0 11.071-19.29V949.2a22.3 22.3 60.048 0 0-11.118-19.295l-88.942-51.55a22.17 22.17.001 0 0-22.238-.001l-80.532 46.671a37.45 37.45 118.81 0 0-18.64 33.89l.396 9.932a16.856 16.856 42.522 0 0 17.628 16.165l5.832-.272a13.217 13.217 135.825 0 0 12.564-12.207l.416-5.505a15.96 15.96 122.126 0 1 7.916-12.606l58.257-33.728a14.53 14.53 0 0 1 14.564 0l58.27 33.737a14.52 14.52 60.116 0 1 7.242 12.604l-.19 67.175a14.66 14.66 119.973 0 1-7.282 12.626l-50.644 29.494a29.17 29.17 179.996 0 1-29.357 0l-124.874-72.699a14.57 14.57 60.104 0 1-7.238-12.59v-58.414a29.46 29.46 119.943 0 1 14.679-25.484l117.433-68.112a29.26 29.26 0 0 1 29.358 0l117.47 68.135a29.38 29.38 60.057 0 1 14.64 25.415v135.337a29.5 29.5 119.918 0 1-14.68 25.509l-110.04 63.954a43.94 43.94 179.987 0 1-44.143.01l-184.02-106.839a29.42 29.42 60.07 0 1-14.646-25.44V898.238a44.25 44.25 120.002 0 1 22.125-38.319l177.076-102.22a44 44 .058 0 1 44.071.044l176.188 102.182a44.19 44.19 60.057 0 1 22.018 38.226l-.01 203.547a44.44 44.44 119.893 0 1-22.074 38.4L1025 1241.24a49.42 49.42.118 0 1-49.92-.103l-206.332-121.316a18.652 18.652 162.178 0 0-26.507 8.522 23.17 23.17 68.011 0 0 11.584 28.687l220.258 127.913a51.55 51.55 179.961 0 0 51.837-.035l207.364-120.803a51.97 51.97 119.888 0 0 25.808-44.901v-243.37a44.18 44.18 60.068 0 0-21.998-38.205L1043.02 724.97l-7.82-4.54-9.28-5.387a51.61 51.61.002 0 0-51.82-.002z"/>
  </g>
</svg>
